<?xml version="1.0" encoding="UTF-8" standalone="no"?>
<!DOCTYPE svg PUBLIC "-//W3C//DTD SVG 1.1//EN"
 "http://www.w3.org/Graphics/SVG/1.1/DTD/svg11.dtd">
<!-- Generated by graphviz version 7.0.0 (20221023.0053)
 -->
<!-- Title: snakemake_dag Pages: 1 -->
<svg width="497pt" height="404pt"
 viewBox="0.00 0.00 497.00 404.00" xmlns="http://www.w3.org/2000/svg" xmlns:xlink="http://www.w3.org/1999/xlink">
<g id="graph0" class="graph" transform="scale(1 1) rotate(0) translate(4 400)">
<title>snakemake_dag</title>
<polygon fill="white" stroke="none" points="-4,4 -4,-400 493,-400 493,4 -4,4"/>
<!-- 0 -->
<g id="node1" class="node">
<title>0</title>
<path fill="none" stroke="#59d856" stroke-width="2" d="M221,-36C221,-36 191,-36 191,-36 185,-36 179,-30 179,-24 179,-24 179,-12 179,-12 179,-6 185,0 191,0 191,0 221,0 221,0 227,0 233,-6 233,-12 233,-12 233,-24 233,-24 233,-30 227,-36 221,-36"/>
<text text-anchor="middle" x="206" y="-15.5" font-family="sans" font-size="10.00">all</text>
</g>
<!-- 1 -->
<g id="node2" class="node">
<title>1</title>
<path fill="none" stroke="#d88d56" stroke-width="2" d="M80,-108C80,-108 12,-108 12,-108 6,-108 0,-102 0,-96 0,-96 0,-84 0,-84 0,-78 6,-72 12,-72 12,-72 80,-72 80,-72 86,-72 92,-78 92,-84 92,-84 92,-96 92,-96 92,-102 86,-108 80,-108"/>
<text text-anchor="middle" x="46" y="-87.5" font-family="sans" font-size="10.00">current_rulegraph</text>
</g>
<!-- 1&#45;&gt;0 -->
<g id="edge1" class="edge">
<title>1&#45;&gt;0</title>
<path fill="none" stroke="grey" stroke-width="2" d="M86.79,-71.15C111.34,-60.41 142.44,-46.81 166.72,-36.18"/>
<polygon fill="grey" stroke="grey" stroke-width="2" points="167.84,-39.51 175.6,-32.3 165.04,-33.1 167.84,-39.51"/>
</g>
<!-- 2 -->
<g id="node3" class="node">
<title>2</title>
<path fill="none" stroke="#568ad8" stroke-width="2" d="M208,-108C208,-108 122,-108 122,-108 116,-108 110,-102 110,-96 110,-96 110,-84 110,-84 110,-78 116,-72 122,-72 122,-72 208,-72 208,-72 214,-72 220,-78 220,-84 220,-84 220,-96 220,-96 220,-102 214,-108 208,-108"/>
<text text-anchor="middle" x="165" y="-87.5" font-family="sans" font-size="10.00">plot_mobility_national</text>
</g>
<!-- 2&#45;&gt;0 -->
<g id="edge2" class="edge">
<title>2&#45;&gt;0</title>
<path fill="none" stroke="grey" stroke-width="2" d="M175.35,-71.34C179.49,-64.26 184.37,-55.92 189.01,-48"/>
<polygon fill="grey" stroke="grey" stroke-width="2" points="191.95,-49.91 193.98,-39.51 185.91,-46.37 191.95,-49.91"/>
</g>
<!-- 3 -->
<g id="node4" class="node">
<title>3</title>
<path fill="none" stroke="#88d856" stroke-width="2" d="M207.5,-180C207.5,-180 118.5,-180 118.5,-180 112.5,-180 106.5,-174 106.5,-168 106.5,-168 106.5,-156 106.5,-156 106.5,-150 112.5,-144 118.5,-144 118.5,-144 207.5,-144 207.5,-144 213.5,-144 219.5,-150 219.5,-156 219.5,-156 219.5,-168 219.5,-168 219.5,-174 213.5,-180 207.5,-180"/>
<text text-anchor="middle" x="163" y="-159.5" font-family="sans" font-size="10.00">clean_google_national</text>
</g>
<!-- 3&#45;&gt;2 -->
<g id="edge5" class="edge">
<title>3&#45;&gt;2</title>
<path fill="none" stroke="grey" stroke-width="2" d="M163.5,-143.34C163.69,-136.75 163.91,-129.08 164.12,-121.67"/>
<polygon fill="grey" stroke="grey" stroke-width="2" points="167.61,-122.02 164.4,-111.93 160.62,-121.82 167.61,-122.02"/>
</g>
<!-- 4 -->
<g id="node5" class="node">
<title>4</title>
<path fill="none" stroke="#56c1d8" stroke-width="2" d="M300.5,-252C300.5,-252 235.5,-252 235.5,-252 229.5,-252 223.5,-246 223.5,-240 223.5,-240 223.5,-228 223.5,-228 223.5,-222 229.5,-216 235.5,-216 235.5,-216 300.5,-216 300.5,-216 306.5,-216 312.5,-222 312.5,-228 312.5,-228 312.5,-240 312.5,-240 312.5,-246 306.5,-252 300.5,-252"/>
<text text-anchor="middle" x="268" y="-231.5" font-family="sans" font-size="10.00">plot_mobility_lad</text>
</g>
<!-- 4&#45;&gt;0 -->
<g id="edge3" class="edge">
<title>4&#45;&gt;0</title>
<path fill="none" stroke="grey" stroke-width="2" d="M264.75,-215.33C259.03,-185.39 246.1,-122.99 229,-72 226.43,-64.32 223.19,-56.22 219.96,-48.72"/>
<polygon fill="grey" stroke="grey" stroke-width="2" points="223.17,-47.32 215.9,-39.61 216.78,-50.17 223.17,-47.32"/>
</g>
<!-- 5 -->
<g id="node6" class="node">
<title>5</title>
<path fill="none" stroke="#d8bc56" stroke-width="2" d="M385,-396C385,-396 317,-396 317,-396 311,-396 305,-390 305,-384 305,-384 305,-372 305,-372 305,-366 311,-360 317,-360 317,-360 385,-360 385,-360 391,-360 397,-366 397,-372 397,-372 397,-384 397,-384 397,-390 391,-396 385,-396"/>
<text text-anchor="middle" x="351" y="-375.5" font-family="sans" font-size="10.00">clean_google_lad</text>
</g>
<!-- 5&#45;&gt;4 -->
<g id="edge6" class="edge">
<title>5&#45;&gt;4</title>
<path fill="none" stroke="grey" stroke-width="2" d="M340.49,-359.02C326.46,-335.01 301.44,-292.21 284.79,-263.72"/>
<polygon fill="grey" stroke="grey" stroke-width="2" points="288.02,-262.32 279.95,-255.45 281.98,-265.85 288.02,-262.32"/>
</g>
<!-- 7 -->
<g id="node8" class="node">
<title>7</title>
<path fill="none" stroke="#56d8c1" stroke-width="2" d="M434,-180C434,-180 288,-180 288,-180 282,-180 276,-174 276,-168 276,-168 276,-156 276,-156 276,-150 282,-144 288,-144 288,-144 434,-144 434,-144 440,-144 446,-150 446,-156 446,-156 446,-168 446,-168 446,-174 440,-180 434,-180"/>
<text text-anchor="middle" x="361" y="-159.5" font-family="sans" font-size="10.00">prep_regression_forward_projection</text>
</g>
<!-- 5&#45;&gt;7 -->
<g id="edge10" class="edge">
<title>5&#45;&gt;7</title>
<path fill="none" stroke="grey" stroke-width="2" d="M351.84,-359.12C353.54,-322.62 357.44,-239.13 359.56,-193.74"/>
<polygon fill="grey" stroke="grey" stroke-width="2" points="363.05,-194.15 360.02,-184 356.06,-193.83 363.05,-194.15"/>
</g>
<!-- 9 -->
<g id="node10" class="node">
<title>9</title>
<path fill="none" stroke="#bed856" stroke-width="2" d="M477,-324C477,-324 391,-324 391,-324 385,-324 379,-318 379,-312 379,-312 379,-300 379,-300 379,-294 385,-288 391,-288 391,-288 477,-288 477,-288 483,-288 489,-294 489,-300 489,-300 489,-312 489,-312 489,-318 483,-324 477,-324"/>
<text text-anchor="middle" x="434" y="-303.5" font-family="sans" font-size="10.00">prep_regression_data</text>
</g>
<!-- 5&#45;&gt;9 -->
<g id="edge12" class="edge">
<title>5&#45;&gt;9</title>
<path fill="none" stroke="grey" stroke-width="2" d="M371.94,-359.34C381.31,-351.44 392.54,-341.96 402.86,-333.26"/>
<polygon fill="grey" stroke="grey" stroke-width="2" points="405.07,-335.98 410.46,-326.85 400.56,-330.62 405.07,-335.98"/>
</g>
<!-- 6 -->
<g id="node7" class="node">
<title>6</title>
<path fill="none" stroke="#d85656" stroke-width="2" d="M422,-108C422,-108 300,-108 300,-108 294,-108 288,-102 288,-96 288,-96 288,-84 288,-84 288,-78 294,-72 300,-72 300,-72 422,-72 422,-72 428,-72 434,-78 434,-84 434,-84 434,-96 434,-96 434,-102 428,-108 422,-108"/>
<text text-anchor="middle" x="361" y="-87.5" font-family="sans" font-size="10.00">regression_forward_projection</text>
</g>
<!-- 6&#45;&gt;0 -->
<g id="edge4" class="edge">
<title>6&#45;&gt;0</title>
<path fill="none" stroke="grey" stroke-width="2" d="M321.49,-71.15C298.11,-60.6 268.62,-47.28 245.29,-36.74"/>
<polygon fill="grey" stroke="grey" stroke-width="2" points="247.03,-33.69 236.47,-32.76 244.14,-40.07 247.03,-33.69"/>
</g>
<!-- 7&#45;&gt;6 -->
<g id="edge7" class="edge">
<title>7&#45;&gt;6</title>
<path fill="none" stroke="grey" stroke-width="2" d="M361,-143.34C361,-136.75 361,-129.08 361,-121.67"/>
<polygon fill="grey" stroke="grey" stroke-width="2" points="364.5,-121.93 361,-111.93 357.5,-121.93 364.5,-121.93"/>
</g>
<!-- 8 -->
<g id="node9" class="node">
<title>8</title>
<path fill="none" stroke="#56d88a" stroke-width="2" d="M453,-252C453,-252 415,-252 415,-252 409,-252 403,-246 403,-240 403,-240 403,-228 403,-228 403,-222 409,-216 415,-216 415,-216 453,-216 453,-216 459,-216 465,-222 465,-228 465,-228 465,-240 465,-240 465,-246 459,-252 453,-252"/>
<text text-anchor="middle" x="434" y="-231.5" font-family="sans" font-size="10.00">regression</text>
</g>
<!-- 8&#45;&gt;6 -->
<g id="edge8" class="edge">
<title>8&#45;&gt;6</title>
<path fill="none" stroke="grey" stroke-width="2" d="M445.47,-215.14C455.97,-196.32 468.05,-166.34 455,-144 447.98,-131.99 437.12,-122.48 425.25,-115.04"/>
<polygon fill="grey" stroke="grey" stroke-width="2" points="427.2,-112.13 416.77,-110.27 423.76,-118.22 427.2,-112.13"/>
</g>
<!-- 8&#45;&gt;7 -->
<g id="edge9" class="edge">
<title>8&#45;&gt;7</title>
<path fill="none" stroke="grey" stroke-width="2" d="M415.58,-215.34C407.51,-207.6 397.87,-198.36 388.96,-189.81"/>
<polygon fill="grey" stroke="grey" stroke-width="2" points="391.49,-187.39 381.85,-183 386.65,-192.44 391.49,-187.39"/>
</g>
<!-- 9&#45;&gt;8 -->
<g id="edge11" class="edge">
<title>9&#45;&gt;8</title>
<path fill="none" stroke="grey" stroke-width="2" d="M434,-287.34C434,-280.75 434,-273.08 434,-265.67"/>
<polygon fill="grey" stroke="grey" stroke-width="2" points="437.5,-265.93 434,-255.93 430.5,-265.93 437.5,-265.93"/>
</g>
</g>
</svg>
