<?xml version="1.0" encoding="UTF-8" standalone="no"?>
<!DOCTYPE svg PUBLIC "-//W3C//DTD SVG 1.1//EN"
 "http://www.w3.org/Graphics/SVG/1.1/DTD/svg11.dtd">
<!-- Generated by graphviz version 7.0.0 (20221023.0053)
 -->
<!-- Title: snakemake_dag Pages: 1 -->
<svg width="624pt" height="404pt"
 viewBox="0.00 0.00 624.00 404.00" xmlns="http://www.w3.org/2000/svg" xmlns:xlink="http://www.w3.org/1999/xlink">
<g id="graph0" class="graph" transform="scale(1 1) rotate(0) translate(4 400)">
<title>snakemake_dag</title>
<polygon fill="white" stroke="none" points="-4,4 -4,-400 620,-400 620,4 -4,4"/>
<!-- 0 -->
<g id="node1" class="node">
<title>0</title>
<path fill="none" stroke="#d88556" stroke-width="2" d="M263,-36C263,-36 233,-36 233,-36 227,-36 221,-30 221,-24 221,-24 221,-12 221,-12 221,-6 227,0 233,0 233,0 263,0 263,0 269,0 275,-6 275,-12 275,-12 275,-24 275,-24 275,-30 269,-36 263,-36"/>
<text text-anchor="middle" x="248" y="-15.5" font-family="sans" font-size="10.00">all</text>
</g>
<!-- 1 -->
<g id="node2" class="node">
<title>1</title>
<path fill="none" stroke="#56d86b" stroke-width="2" d="M80,-108C80,-108 12,-108 12,-108 6,-108 0,-102 0,-96 0,-96 0,-84 0,-84 0,-78 6,-72 12,-72 12,-72 80,-72 80,-72 86,-72 92,-78 92,-84 92,-84 92,-96 92,-96 92,-102 86,-108 80,-108"/>
<text text-anchor="middle" x="46" y="-87.5" font-family="sans" font-size="10.00">current_rulegraph</text>
</g>
<!-- 1&#45;&gt;0 -->
<g id="edge3" class="edge">
<title>1&#45;&gt;0</title>
<path fill="none" stroke="grey" stroke-width="2" d="M92.85,-72.76C127.78,-60.66 174.98,-44.3 208.12,-32.82"/>
<polygon fill="grey" stroke="grey" stroke-width="2" points="208.91,-36.25 217.21,-29.67 206.62,-29.64 208.91,-36.25"/>
</g>
<!-- 2 -->
<g id="node3" class="node">
<title>2</title>
<path fill="none" stroke="#5682d8" stroke-width="2" d="M208,-108C208,-108 122,-108 122,-108 116,-108 110,-102 110,-96 110,-96 110,-84 110,-84 110,-78 116,-72 122,-72 122,-72 208,-72 208,-72 214,-72 220,-78 220,-84 220,-84 220,-96 220,-96 220,-102 214,-108 208,-108"/>
<text text-anchor="middle" x="165" y="-87.5" font-family="sans" font-size="10.00">plot_mobility_national</text>
</g>
<!-- 2&#45;&gt;0 -->
<g id="edge5" class="edge">
<title>2&#45;&gt;0</title>
<path fill="none" stroke="grey" stroke-width="2" d="M185.94,-71.34C195.31,-63.44 206.54,-53.96 216.86,-45.26"/>
<polygon fill="grey" stroke="grey" stroke-width="2" points="219.07,-47.98 224.46,-38.85 214.56,-42.62 219.07,-47.98"/>
</g>
<!-- 3 -->
<g id="node4" class="node">
<title>3</title>
<path fill="none" stroke="#9fd856" stroke-width="2" d="M207.5,-180C207.5,-180 118.5,-180 118.5,-180 112.5,-180 106.5,-174 106.5,-168 106.5,-168 106.5,-156 106.5,-156 106.5,-150 112.5,-144 118.5,-144 118.5,-144 207.5,-144 207.5,-144 213.5,-144 219.5,-150 219.5,-156 219.5,-156 219.5,-168 219.5,-168 219.5,-174 213.5,-180 207.5,-180"/>
<text text-anchor="middle" x="163" y="-159.5" font-family="sans" font-size="10.00">clean_google_national</text>
</g>
<!-- 3&#45;&gt;2 -->
<g id="edge6" class="edge">
<title>3&#45;&gt;2</title>
<path fill="none" stroke="grey" stroke-width="2" d="M163.5,-143.34C163.69,-136.75 163.91,-129.08 164.12,-121.67"/>
<polygon fill="grey" stroke="grey" stroke-width="2" points="167.61,-122.02 164.4,-111.93 160.62,-121.82 167.61,-122.02"/>
</g>
<!-- 4 -->
<g id="node5" class="node">
<title>4</title>
<path fill="none" stroke="#56b1d8" stroke-width="2" d="M300.5,-252C300.5,-252 235.5,-252 235.5,-252 229.5,-252 223.5,-246 223.5,-240 223.5,-240 223.5,-228 223.5,-228 223.5,-222 229.5,-216 235.5,-216 235.5,-216 300.5,-216 300.5,-216 306.5,-216 312.5,-222 312.5,-228 312.5,-228 312.5,-240 312.5,-240 312.5,-246 306.5,-252 300.5,-252"/>
<text text-anchor="middle" x="268" y="-231.5" font-family="sans" font-size="10.00">plot_mobility_lad</text>
</g>
<!-- 4&#45;&gt;0 -->
<g id="edge4" class="edge">
<title>4&#45;&gt;0</title>
<path fill="none" stroke="grey" stroke-width="2" d="M266.33,-215.12C262.92,-178.62 255.11,-95.13 250.87,-49.74"/>
<polygon fill="grey" stroke="grey" stroke-width="2" points="254.38,-49.62 249.96,-39.99 247.41,-50.27 254.38,-49.62"/>
</g>
<!-- 5 -->
<g id="node6" class="node">
<title>5</title>
<path fill="none" stroke="#d85656" stroke-width="2" d="M395,-396C395,-396 327,-396 327,-396 321,-396 315,-390 315,-384 315,-384 315,-372 315,-372 315,-366 321,-360 327,-360 327,-360 395,-360 395,-360 401,-360 407,-366 407,-372 407,-372 407,-384 407,-384 407,-390 401,-396 395,-396"/>
<text text-anchor="middle" x="361" y="-375.5" font-family="sans" font-size="10.00">clean_google_lad</text>
</g>
<!-- 5&#45;&gt;4 -->
<g id="edge7" class="edge">
<title>5&#45;&gt;4</title>
<path fill="none" stroke="grey" stroke-width="2" d="M349.22,-359.02C333.5,-335.01 305.47,-292.21 286.81,-263.72"/>
<polygon fill="grey" stroke="grey" stroke-width="2" points="289.75,-261.82 281.34,-255.37 283.89,-265.65 289.75,-261.82"/>
</g>
<!-- 7 -->
<g id="node8" class="node">
<title>7</title>
<path fill="none" stroke="#56d8c9" stroke-width="2" d="M434,-180C434,-180 288,-180 288,-180 282,-180 276,-174 276,-168 276,-168 276,-156 276,-156 276,-150 282,-144 288,-144 288,-144 434,-144 434,-144 440,-144 446,-150 446,-156 446,-156 446,-168 446,-168 446,-174 440,-180 434,-180"/>
<text text-anchor="middle" x="361" y="-159.5" font-family="sans" font-size="10.00">prep_regression_forward_projection</text>
</g>
<!-- 5&#45;&gt;7 -->
<g id="edge11" class="edge">
<title>5&#45;&gt;7</title>
<path fill="none" stroke="grey" stroke-width="2" d="M361,-359.12C361,-322.62 361,-239.13 361,-193.74"/>
<polygon fill="grey" stroke="grey" stroke-width="2" points="364.5,-194 361,-184 357.5,-194 364.5,-194"/>
</g>
<!-- 9 -->
<g id="node10" class="node">
<title>9</title>
<path fill="none" stroke="#56d89a" stroke-width="2" d="M494,-324C494,-324 408,-324 408,-324 402,-324 396,-318 396,-312 396,-312 396,-300 396,-300 396,-294 402,-288 408,-288 408,-288 494,-288 494,-288 500,-288 506,-294 506,-300 506,-300 506,-312 506,-312 506,-318 500,-324 494,-324"/>
<text text-anchor="middle" x="451" y="-303.5" font-family="sans" font-size="10.00">prep_regression_data</text>
</g>
<!-- 5&#45;&gt;9 -->
<g id="edge13" class="edge">
<title>5&#45;&gt;9</title>
<path fill="none" stroke="grey" stroke-width="2" d="M383.71,-359.34C394.08,-351.27 406.55,-341.57 417.93,-332.72"/>
<polygon fill="grey" stroke="grey" stroke-width="2" points="419.85,-335.66 425.59,-326.76 415.55,-330.14 419.85,-335.66"/>
</g>
<!-- 6 -->
<g id="node7" class="node">
<title>6</title>
<path fill="none" stroke="#70d856" stroke-width="2" d="M422,-108C422,-108 300,-108 300,-108 294,-108 288,-102 288,-96 288,-96 288,-84 288,-84 288,-78 294,-72 300,-72 300,-72 422,-72 422,-72 428,-72 434,-78 434,-84 434,-84 434,-96 434,-96 434,-102 428,-108 422,-108"/>
<text text-anchor="middle" x="361" y="-87.5" font-family="sans" font-size="10.00">regression_forward_projection</text>
</g>
<!-- 6&#45;&gt;0 -->
<g id="edge2" class="edge">
<title>6&#45;&gt;0</title>
<path fill="none" stroke="grey" stroke-width="2" d="M332.19,-71.15C318.44,-62.63 301.77,-52.31 286.91,-43.1"/>
<polygon fill="grey" stroke="grey" stroke-width="2" points="288.89,-40.21 278.55,-37.92 285.2,-46.16 288.89,-40.21"/>
</g>
<!-- 7&#45;&gt;6 -->
<g id="edge9" class="edge">
<title>7&#45;&gt;6</title>
<path fill="none" stroke="grey" stroke-width="2" d="M361,-143.34C361,-136.75 361,-129.08 361,-121.67"/>
<polygon fill="grey" stroke="grey" stroke-width="2" points="364.5,-121.93 361,-111.93 357.5,-121.93 364.5,-121.93"/>
</g>
<!-- 8 -->
<g id="node9" class="node">
<title>8</title>
<path fill="none" stroke="#d8b456" stroke-width="2" d="M485,-252C485,-252 447,-252 447,-252 441,-252 435,-246 435,-240 435,-240 435,-228 435,-228 435,-222 441,-216 447,-216 447,-216 485,-216 485,-216 491,-216 497,-222 497,-228 497,-228 497,-240 497,-240 497,-246 491,-252 485,-252"/>
<text text-anchor="middle" x="466" y="-231.5" font-family="sans" font-size="10.00">regression</text>
</g>
<!-- 8&#45;&gt;6 -->
<g id="edge8" class="edge">
<title>8&#45;&gt;6</title>
<path fill="none" stroke="grey" stroke-width="2" d="M468.24,-215.35C469.73,-196.15 469.3,-165.34 455,-144 447.1,-132.2 435.63,-122.74 423.41,-115.27"/>
<polygon fill="grey" stroke="grey" stroke-width="2" points="425.14,-112.23 414.7,-110.43 421.74,-118.35 425.14,-112.23"/>
</g>
<!-- 8&#45;&gt;7 -->
<g id="edge10" class="edge">
<title>8&#45;&gt;7</title>
<path fill="none" stroke="grey" stroke-width="2" d="M439.23,-215.15C426.77,-206.84 411.73,-196.82 398.18,-187.79"/>
<polygon fill="grey" stroke="grey" stroke-width="2" points="400.5,-185.13 390.24,-182.49 396.62,-190.95 400.5,-185.13"/>
</g>
<!-- 10 -->
<g id="node11" class="node">
<title>10</title>
<path fill="none" stroke="#ced856" stroke-width="2" d="M604,-180C604,-180 514,-180 514,-180 508,-180 502,-174 502,-168 502,-168 502,-156 502,-156 502,-150 508,-144 514,-144 514,-144 604,-144 604,-144 610,-144 616,-150 616,-156 616,-156 616,-168 616,-168 616,-174 610,-180 604,-180"/>
<text text-anchor="middle" x="559" y="-159.5" font-family="sans" font-size="10.00">summarise_sensitivity</text>
</g>
<!-- 8&#45;&gt;10 -->
<g id="edge14" class="edge">
<title>8&#45;&gt;10</title>
<path fill="none" stroke="grey" stroke-width="2" d="M489.47,-215.34C500.18,-207.27 513.07,-197.57 524.83,-188.72"/>
<polygon fill="grey" stroke="grey" stroke-width="2" points="526.91,-191.53 532.8,-182.72 522.7,-185.94 526.91,-191.53"/>
</g>
<!-- 9&#45;&gt;8 -->
<g id="edge12" class="edge">
<title>9&#45;&gt;8</title>
<path fill="none" stroke="grey" stroke-width="2" d="M454.79,-287.34C456.21,-280.67 457.88,-272.89 459.49,-265.39"/>
<polygon fill="grey" stroke="grey" stroke-width="2" points="462.86,-266.37 461.53,-255.86 456.01,-264.91 462.86,-266.37"/>
</g>
<!-- 10&#45;&gt;0 -->
<g id="edge1" class="edge">
<title>10&#45;&gt;0</title>
<path fill="none" stroke="grey" stroke-width="2" d="M540.46,-143.03C518.78,-122.96 480.99,-90.82 443,-72 392.62,-47.04 328.89,-32.56 288.27,-25.22"/>
<polygon fill="grey" stroke="grey" stroke-width="2" points="289.13,-21.82 278.68,-23.56 287.93,-28.71 289.13,-21.82"/>
</g>
</g>
</svg>
