<?xml version="1.0" encoding="UTF-8" standalone="no"?>
<!DOCTYPE svg PUBLIC "-//W3C//DTD SVG 1.1//EN"
 "http://www.w3.org/Graphics/SVG/1.1/DTD/svg11.dtd">
<!-- Generated by graphviz version 7.0.0 (20221023.0053)
 -->
<!-- Title: snakemake_dag Pages: 1 -->
<svg width="530pt" height="404pt"
 viewBox="0.00 0.00 530.00 404.00" xmlns="http://www.w3.org/2000/svg" xmlns:xlink="http://www.w3.org/1999/xlink">
<g id="graph0" class="graph" transform="scale(1 1) rotate(0) translate(4 400)">
<title>snakemake_dag</title>
<polygon fill="white" stroke="none" points="-4,4 -4,-400 526,-400 526,4 -4,4"/>
<!-- 0 -->
<g id="node1" class="node">
<title>0</title>
<path fill="none" stroke="#d85656" stroke-width="2" d="M263,-36C263,-36 233,-36 233,-36 227,-36 221,-30 221,-24 221,-24 221,-12 221,-12 221,-6 227,0 233,0 233,0 263,0 263,0 269,0 275,-6 275,-12 275,-12 275,-24 275,-24 275,-30 269,-36 263,-36"/>
<text text-anchor="middle" x="248" y="-15.5" font-family="sans" font-size="10.00">all</text>
</g>
<!-- 1 -->
<g id="node2" class="node">
<title>1</title>
<path fill="none" stroke="#56d88a" stroke-width="2" d="M80,-108C80,-108 12,-108 12,-108 6,-108 0,-102 0,-96 0,-96 0,-84 0,-84 0,-78 6,-72 12,-72 12,-72 80,-72 80,-72 86,-72 92,-78 92,-84 92,-84 92,-96 92,-96 92,-102 86,-108 80,-108"/>
<text text-anchor="middle" x="46" y="-87.5" font-family="sans" font-size="10.00">current_rulegraph</text>
</g>
<!-- 1&#45;&gt;0 -->
<g id="edge3" class="edge">
<title>1&#45;&gt;0</title>
<path fill="none" stroke="grey" stroke-width="2" d="M92.85,-72.76C127.78,-60.66 174.98,-44.3 208.12,-32.82"/>
<polygon fill="grey" stroke="grey" stroke-width="2" points="208.91,-36.25 217.21,-29.67 206.62,-29.64 208.91,-36.25"/>
</g>
<!-- 2 -->
<g id="node3" class="node">
<title>2</title>
<path fill="none" stroke="#56c1d8" stroke-width="2" d="M208,-108C208,-108 122,-108 122,-108 116,-108 110,-102 110,-96 110,-96 110,-84 110,-84 110,-78 116,-72 122,-72 122,-72 208,-72 208,-72 214,-72 220,-78 220,-84 220,-84 220,-96 220,-96 220,-102 214,-108 208,-108"/>
<text text-anchor="middle" x="165" y="-87.5" font-family="sans" font-size="10.00">plot_mobility_national</text>
</g>
<!-- 2&#45;&gt;0 -->
<g id="edge5" class="edge">
<title>2&#45;&gt;0</title>
<path fill="none" stroke="grey" stroke-width="2" d="M185.94,-71.34C195.31,-63.44 206.54,-53.96 216.86,-45.26"/>
<polygon fill="grey" stroke="grey" stroke-width="2" points="219.07,-47.98 224.46,-38.85 214.56,-42.62 219.07,-47.98"/>
</g>
<!-- 3 -->
<g id="node4" class="node">
<title>3</title>
<path fill="none" stroke="#bed856" stroke-width="2" d="M207.5,-180C207.5,-180 118.5,-180 118.5,-180 112.5,-180 106.5,-174 106.5,-168 106.5,-168 106.5,-156 106.5,-156 106.5,-150 112.5,-144 118.5,-144 118.5,-144 207.5,-144 207.5,-144 213.5,-144 219.5,-150 219.5,-156 219.5,-156 219.5,-168 219.5,-168 219.5,-174 213.5,-180 207.5,-180"/>
<text text-anchor="middle" x="163" y="-159.5" font-family="sans" font-size="10.00">clean_google_national</text>
</g>
<!-- 3&#45;&gt;2 -->
<g id="edge6" class="edge">
<title>3&#45;&gt;2</title>
<path fill="none" stroke="grey" stroke-width="2" d="M163.5,-143.34C163.69,-136.75 163.91,-129.08 164.12,-121.67"/>
<polygon fill="grey" stroke="grey" stroke-width="2" points="167.61,-122.02 164.4,-111.93 160.62,-121.82 167.61,-122.02"/>
</g>
<!-- 4 -->
<g id="node5" class="node">
<title>4</title>
<path fill="none" stroke="#56d8c1" stroke-width="2" d="M280.5,-252C280.5,-252 215.5,-252 215.5,-252 209.5,-252 203.5,-246 203.5,-240 203.5,-240 203.5,-228 203.5,-228 203.5,-222 209.5,-216 215.5,-216 215.5,-216 280.5,-216 280.5,-216 286.5,-216 292.5,-222 292.5,-228 292.5,-228 292.5,-240 292.5,-240 292.5,-246 286.5,-252 280.5,-252"/>
<text text-anchor="middle" x="248" y="-231.5" font-family="sans" font-size="10.00">plot_mobility_lad</text>
</g>
<!-- 4&#45;&gt;0 -->
<g id="edge4" class="edge">
<title>4&#45;&gt;0</title>
<path fill="none" stroke="grey" stroke-width="2" d="M248,-215.12C248,-178.62 248,-95.13 248,-49.74"/>
<polygon fill="grey" stroke="grey" stroke-width="2" points="251.5,-50 248,-40 244.5,-50 251.5,-50"/>
</g>
<!-- 5 -->
<g id="node6" class="node">
<title>5</title>
<path fill="none" stroke="#568ad8" stroke-width="2" d="M376,-396C376,-396 308,-396 308,-396 302,-396 296,-390 296,-384 296,-384 296,-372 296,-372 296,-366 302,-360 308,-360 308,-360 376,-360 376,-360 382,-360 388,-366 388,-372 388,-372 388,-384 388,-384 388,-390 382,-396 376,-396"/>
<text text-anchor="middle" x="342" y="-375.5" font-family="sans" font-size="10.00">clean_google_lad</text>
</g>
<!-- 5&#45;&gt;4 -->
<g id="edge7" class="edge">
<title>5&#45;&gt;4</title>
<path fill="none" stroke="grey" stroke-width="2" d="M314.02,-359.16C301.51,-349.97 287.48,-337.79 278,-324 265.87,-306.35 258.29,-283.39 253.79,-265.21"/>
<polygon fill="grey" stroke="grey" stroke-width="2" points="257.24,-264.63 251.63,-255.64 250.41,-266.16 257.24,-264.63"/>
</g>
<!-- 7 -->
<g id="node8" class="node">
<title>7</title>
<path fill="none" stroke="#88d856" stroke-width="2" d="M385,-324C385,-324 299,-324 299,-324 293,-324 287,-318 287,-312 287,-312 287,-300 287,-300 287,-294 293,-288 299,-288 299,-288 385,-288 385,-288 391,-288 397,-294 397,-300 397,-300 397,-312 397,-312 397,-318 391,-324 385,-324"/>
<text text-anchor="middle" x="342" y="-303.5" font-family="sans" font-size="10.00">prep_regression_data</text>
</g>
<!-- 5&#45;&gt;7 -->
<g id="edge9" class="edge">
<title>5&#45;&gt;7</title>
<path fill="none" stroke="grey" stroke-width="2" d="M342,-359.34C342,-352.75 342,-345.08 342,-337.67"/>
<polygon fill="grey" stroke="grey" stroke-width="2" points="345.5,-337.93 342,-327.93 338.5,-337.93 345.5,-337.93"/>
</g>
<!-- 9 -->
<g id="node10" class="node">
<title>9</title>
<path fill="none" stroke="#d8bc56" stroke-width="2" d="M510,-180C510,-180 364,-180 364,-180 358,-180 352,-174 352,-168 352,-168 352,-156 352,-156 352,-150 358,-144 364,-144 364,-144 510,-144 510,-144 516,-144 522,-150 522,-156 522,-156 522,-168 522,-168 522,-174 516,-180 510,-180"/>
<text text-anchor="middle" x="437" y="-159.5" font-family="sans" font-size="10.00">prep_regression_forward_projection</text>
</g>
<!-- 5&#45;&gt;9 -->
<g id="edge12" class="edge">
<title>5&#45;&gt;9</title>
<path fill="none" stroke="grey" stroke-width="2" d="M371.49,-359.23C384.01,-350.21 397.62,-338.15 406,-324 430.09,-283.32 435.97,-227.64 437.13,-193.56"/>
<polygon fill="grey" stroke="grey" stroke-width="2" points="440.62,-193.89 437.32,-183.83 433.63,-193.76 440.62,-193.89"/>
</g>
<!-- 6 -->
<g id="node7" class="node">
<title>6</title>
<path fill="none" stroke="#d88d56" stroke-width="2" d="M361,-252C361,-252 323,-252 323,-252 317,-252 311,-246 311,-240 311,-240 311,-228 311,-228 311,-222 317,-216 323,-216 323,-216 361,-216 361,-216 367,-216 373,-222 373,-228 373,-228 373,-240 373,-240 373,-246 367,-252 361,-252"/>
<text text-anchor="middle" x="342" y="-231.5" font-family="sans" font-size="10.00">regression</text>
</g>
<!-- 6&#45;&gt;0 -->
<g id="edge1" class="edge">
<title>6&#45;&gt;0</title>
<path fill="none" stroke="grey" stroke-width="2" d="M334.15,-215.12C318.01,-178.38 280.96,-94.05 261.12,-48.87"/>
<polygon fill="grey" stroke="grey" stroke-width="2" points="264.34,-47.5 257.11,-39.75 257.93,-50.31 264.34,-47.5"/>
</g>
<!-- 8 -->
<g id="node9" class="node">
<title>8</title>
<path fill="none" stroke="#59d856" stroke-width="2" d="M448,-108C448,-108 326,-108 326,-108 320,-108 314,-102 314,-96 314,-96 314,-84 314,-84 314,-78 320,-72 326,-72 326,-72 448,-72 448,-72 454,-72 460,-78 460,-84 460,-84 460,-96 460,-96 460,-102 454,-108 448,-108"/>
<text text-anchor="middle" x="387" y="-87.5" font-family="sans" font-size="10.00">regression_forward_projection</text>
</g>
<!-- 6&#45;&gt;8 -->
<g id="edge10" class="edge">
<title>6&#45;&gt;8</title>
<path fill="none" stroke="grey" stroke-width="2" d="M338.81,-215.32C336.26,-196.9 334.37,-167.5 343,-144 346.4,-134.74 352.18,-125.94 358.45,-118.27"/>
<polygon fill="grey" stroke="grey" stroke-width="2" points="361.05,-120.62 365.11,-110.83 355.83,-115.95 361.05,-120.62"/>
</g>
<!-- 6&#45;&gt;9 -->
<g id="edge13" class="edge">
<title>6&#45;&gt;9</title>
<path fill="none" stroke="grey" stroke-width="2" d="M365.97,-215.34C377.03,-207.19 390.35,-197.37 402.46,-188.45"/>
<polygon fill="grey" stroke="grey" stroke-width="2" points="404.29,-191.45 410.27,-182.7 400.14,-185.81 404.29,-191.45"/>
</g>
<!-- 7&#45;&gt;6 -->
<g id="edge8" class="edge">
<title>7&#45;&gt;6</title>
<path fill="none" stroke="grey" stroke-width="2" d="M342,-287.34C342,-280.75 342,-273.08 342,-265.67"/>
<polygon fill="grey" stroke="grey" stroke-width="2" points="345.5,-265.93 342,-255.93 338.5,-265.93 345.5,-265.93"/>
</g>
<!-- 8&#45;&gt;0 -->
<g id="edge2" class="edge">
<title>8&#45;&gt;0</title>
<path fill="none" stroke="grey" stroke-width="2" d="M351.56,-71.15C332.02,-61.31 307.71,-49.07 287.55,-38.92"/>
<polygon fill="grey" stroke="grey" stroke-width="2" points="289.13,-35.8 278.63,-34.42 285.98,-42.05 289.13,-35.8"/>
</g>
<!-- 9&#45;&gt;8 -->
<g id="edge11" class="edge">
<title>9&#45;&gt;8</title>
<path fill="none" stroke="grey" stroke-width="2" d="M424.38,-143.34C419.21,-136.1 413.09,-127.53 407.32,-119.45"/>
<polygon fill="grey" stroke="grey" stroke-width="2" points="410.21,-117.47 401.55,-111.37 404.51,-121.54 410.21,-117.47"/>
</g>
</g>
</svg>
