<?xml version="1.0" encoding="UTF-8" standalone="no"?>
<!DOCTYPE svg PUBLIC "-//W3C//DTD SVG 1.1//EN"
 "http://www.w3.org/Graphics/SVG/1.1/DTD/svg11.dtd">
<!-- Generated by graphviz version 7.0.0 (20221023.0053)
 -->
<!-- Title: snakemake_dag Pages: 1 -->
<svg width="626pt" height="188pt"
 viewBox="0.00 0.00 625.50 188.00" xmlns="http://www.w3.org/2000/svg" xmlns:xlink="http://www.w3.org/1999/xlink">
<g id="graph0" class="graph" transform="scale(1 1) rotate(0) translate(4 184)">
<title>snakemake_dag</title>
<polygon fill="white" stroke="none" points="-4,4 -4,-184 621.5,-184 621.5,4 -4,4"/>
<!-- 0 -->
<g id="node1" class="node">
<title>0</title>
<path fill="none" stroke="#56c1d8" stroke-width="2" d="M275,-36C275,-36 245,-36 245,-36 239,-36 233,-30 233,-24 233,-24 233,-12 233,-12 233,-6 239,0 245,0 245,0 275,0 275,0 281,0 287,-6 287,-12 287,-12 287,-24 287,-24 287,-30 281,-36 275,-36"/>
<text text-anchor="middle" x="260" y="-15.5" font-family="sans" font-size="10.00">all</text>
</g>
<!-- 1 -->
<g id="node2" class="node">
<title>1</title>
<path fill="none" stroke="#d8bc56" stroke-width="2" d="M44,-108C44,-108 12,-108 12,-108 6,-108 0,-102 0,-96 0,-96 0,-84 0,-84 0,-78 6,-72 12,-72 12,-72 44,-72 44,-72 50,-72 56,-78 56,-84 56,-84 56,-96 56,-96 56,-102 50,-108 44,-108"/>
<text text-anchor="middle" x="28" y="-87.5" font-family="sans" font-size="10.00">rulegraph</text>
</g>
<!-- 1&#45;&gt;0 -->
<g id="edge3" class="edge">
<title>1&#45;&gt;0</title>
<path fill="none" stroke="grey" stroke-width="2" d="M56.9,-75.18C59.61,-74.04 62.34,-72.96 65,-72 117.3,-53.03 179.62,-37.22 219.49,-27.94"/>
<polygon fill="grey" stroke="grey" stroke-width="2" points="220.19,-31.37 229.15,-25.73 218.62,-24.55 220.19,-31.37"/>
</g>
<!-- 2 -->
<g id="node3" class="node">
<title>2</title>
<path fill="none" stroke="#568ad8" stroke-width="2" d="M116,-108C116,-108 86,-108 86,-108 80,-108 74,-102 74,-96 74,-96 74,-84 74,-84 74,-78 80,-72 86,-72 86,-72 116,-72 116,-72 122,-72 128,-78 128,-84 128,-84 128,-96 128,-96 128,-102 122,-108 116,-108"/>
<text text-anchor="middle" x="101" y="-87.5" font-family="sans" font-size="10.00">dag</text>
</g>
<!-- 2&#45;&gt;0 -->
<g id="edge6" class="edge">
<title>2&#45;&gt;0</title>
<path fill="none" stroke="grey" stroke-width="2" d="M128.86,-75.73C131.61,-74.45 134.35,-73.19 137,-72 164.61,-59.54 195.98,-46.03 220.12,-35.77"/>
<polygon fill="grey" stroke="grey" stroke-width="2" points="221.41,-39.03 229.25,-31.91 218.68,-32.59 221.41,-39.03"/>
</g>
<!-- 3 -->
<g id="node4" class="node">
<title>3</title>
<path fill="none" stroke="#56d8c1" stroke-width="2" d="M244,-108C244,-108 158,-108 158,-108 152,-108 146,-102 146,-96 146,-96 146,-84 146,-84 146,-78 152,-72 158,-72 158,-72 244,-72 244,-72 250,-72 256,-78 256,-84 256,-84 256,-96 256,-96 256,-102 250,-108 244,-108"/>
<text text-anchor="middle" x="201" y="-87.5" font-family="sans" font-size="10.00">plot_mobility_national</text>
</g>
<!-- 3&#45;&gt;0 -->
<g id="edge5" class="edge">
<title>3&#45;&gt;0</title>
<path fill="none" stroke="grey" stroke-width="2" d="M215.89,-71.34C222.2,-63.85 229.7,-54.95 236.71,-46.63"/>
<polygon fill="grey" stroke="grey" stroke-width="2" points="239.19,-49.12 242.96,-39.22 233.84,-44.61 239.19,-49.12"/>
</g>
<!-- 4 -->
<g id="node5" class="node">
<title>4</title>
<path fill="none" stroke="#56d88a" stroke-width="2" d="M194.5,-180C194.5,-180 105.5,-180 105.5,-180 99.5,-180 93.5,-174 93.5,-168 93.5,-168 93.5,-156 93.5,-156 93.5,-150 99.5,-144 105.5,-144 105.5,-144 194.5,-144 194.5,-144 200.5,-144 206.5,-150 206.5,-156 206.5,-156 206.5,-168 206.5,-168 206.5,-174 200.5,-180 194.5,-180"/>
<text text-anchor="middle" x="150" y="-159.5" font-family="sans" font-size="10.00">clean_google_national</text>
</g>
<!-- 4&#45;&gt;3 -->
<g id="edge8" class="edge">
<title>4&#45;&gt;3</title>
<path fill="none" stroke="grey" stroke-width="2" d="M162.87,-143.34C168.2,-136.01 174.53,-127.34 180.47,-119.18"/>
<polygon fill="grey" stroke="grey" stroke-width="2" points="183.11,-121.49 186.17,-111.35 177.46,-117.37 183.11,-121.49"/>
</g>
<!-- 5 -->
<g id="node6" class="node">
<title>5</title>
<path fill="none" stroke="#bed856" stroke-width="2" d="M281,-180C281,-180 237,-180 237,-180 231,-180 225,-174 225,-168 225,-168 225,-156 225,-156 225,-150 231,-144 237,-144 237,-144 281,-144 281,-144 287,-144 293,-150 293,-156 293,-156 293,-168 293,-168 293,-174 287,-180 281,-180"/>
<text text-anchor="middle" x="259" y="-159.5" font-family="sans" font-size="10.00">clean_apple</text>
</g>
<!-- 5&#45;&gt;3 -->
<g id="edge7" class="edge">
<title>5&#45;&gt;3</title>
<path fill="none" stroke="grey" stroke-width="2" d="M244.36,-143.34C238.23,-135.93 230.95,-127.14 224.12,-118.9"/>
<polygon fill="grey" stroke="grey" stroke-width="2" points="226.84,-116.7 217.76,-111.23 221.45,-121.17 226.84,-116.7"/>
</g>
<!-- 6 -->
<g id="node7" class="node">
<title>6</title>
<path fill="none" stroke="#88d856" stroke-width="2" d="M351.5,-108C351.5,-108 286.5,-108 286.5,-108 280.5,-108 274.5,-102 274.5,-96 274.5,-96 274.5,-84 274.5,-84 274.5,-78 280.5,-72 286.5,-72 286.5,-72 351.5,-72 351.5,-72 357.5,-72 363.5,-78 363.5,-84 363.5,-84 363.5,-96 363.5,-96 363.5,-102 357.5,-108 351.5,-108"/>
<text text-anchor="middle" x="319" y="-87.5" font-family="sans" font-size="10.00">plot_mobility_lad</text>
</g>
<!-- 6&#45;&gt;0 -->
<g id="edge4" class="edge">
<title>6&#45;&gt;0</title>
<path fill="none" stroke="grey" stroke-width="2" d="M304.11,-71.34C297.8,-63.85 290.3,-54.95 283.29,-46.63"/>
<polygon fill="grey" stroke="grey" stroke-width="2" points="286.16,-44.61 277.04,-39.22 280.81,-49.12 286.16,-44.61"/>
</g>
<!-- 7 -->
<g id="node8" class="node">
<title>7</title>
<path fill="none" stroke="#d88d56" stroke-width="2" d="M405,-180C405,-180 337,-180 337,-180 331,-180 325,-174 325,-168 325,-168 325,-156 325,-156 325,-150 331,-144 337,-144 337,-144 405,-144 405,-144 411,-144 417,-150 417,-156 417,-156 417,-168 417,-168 417,-174 411,-180 405,-180"/>
<text text-anchor="middle" x="371" y="-159.5" font-family="sans" font-size="10.00">clean_google_lad</text>
</g>
<!-- 7&#45;&gt;6 -->
<g id="edge9" class="edge">
<title>7&#45;&gt;6</title>
<path fill="none" stroke="grey" stroke-width="2" d="M357.88,-143.34C352.44,-136.01 345.99,-127.34 339.93,-119.18"/>
<polygon fill="grey" stroke="grey" stroke-width="2" points="342.88,-117.27 334.1,-111.33 337.26,-121.45 342.88,-117.27"/>
</g>
<!-- 9 -->
<g id="node10" class="node">
<title>9</title>
<path fill="none" stroke="#59d856" stroke-width="2" d="M480,-108C480,-108 394,-108 394,-108 388,-108 382,-102 382,-96 382,-96 382,-84 382,-84 382,-78 388,-72 394,-72 394,-72 480,-72 480,-72 486,-72 492,-78 492,-84 492,-84 492,-96 492,-96 492,-102 486,-108 480,-108"/>
<text text-anchor="middle" x="437" y="-87.5" font-family="sans" font-size="10.00">prep_regression_data</text>
</g>
<!-- 7&#45;&gt;9 -->
<g id="edge10" class="edge">
<title>7&#45;&gt;9</title>
<path fill="none" stroke="grey" stroke-width="2" d="M387.65,-143.34C394.79,-135.77 403.29,-126.75 411.21,-118.35"/>
<polygon fill="grey" stroke="grey" stroke-width="2" points="413.73,-120.78 418.04,-111.1 408.64,-115.98 413.73,-120.78"/>
</g>
<!-- 8 -->
<g id="node9" class="node">
<title>8</title>
<path fill="none" stroke="#d85656" stroke-width="2" d="M605.5,-108C605.5,-108 522.5,-108 522.5,-108 516.5,-108 510.5,-102 510.5,-96 510.5,-96 510.5,-84 510.5,-84 510.5,-78 516.5,-72 522.5,-72 522.5,-72 605.5,-72 605.5,-72 611.5,-72 617.5,-78 617.5,-84 617.5,-84 617.5,-96 617.5,-96 617.5,-102 611.5,-108 605.5,-108"/>
<text text-anchor="middle" x="564" y="-87.5" font-family="sans" font-size="10.00">plot_wfh_exploratory</text>
</g>
<!-- 8&#45;&gt;0 -->
<g id="edge1" class="edge">
<title>8&#45;&gt;0</title>
<path fill="none" stroke="grey" stroke-width="2" d="M509.75,-74.19C506.79,-73.43 503.86,-72.7 501,-72 430.82,-54.83 348.52,-37.28 300.52,-27.3"/>
<polygon fill="grey" stroke="grey" stroke-width="2" points="301.4,-23.91 290.9,-25.31 299.98,-30.76 301.4,-23.91"/>
</g>
<!-- 9&#45;&gt;0 -->
<g id="edge2" class="edge">
<title>9&#45;&gt;0</title>
<path fill="none" stroke="grey" stroke-width="2" d="M391.88,-71.15C363.46,-59.91 327.1,-45.54 299.76,-34.73"/>
<polygon fill="grey" stroke="grey" stroke-width="2" points="301.3,-31.57 290.71,-31.15 298.73,-38.08 301.3,-31.57"/>
</g>
</g>
</svg>
