<?xml version="1.0" encoding="UTF-8" standalone="no"?>
<!DOCTYPE svg PUBLIC "-//W3C//DTD SVG 1.1//EN"
 "http://www.w3.org/Graphics/SVG/1.1/DTD/svg11.dtd">
<!-- Generated by graphviz version 7.0.0 (20221023.0053)
 -->
<!-- Title: snakemake_dag Pages: 1 -->
<svg width="662pt" height="404pt"
 viewBox="0.00 0.00 662.00 404.00" xmlns="http://www.w3.org/2000/svg" xmlns:xlink="http://www.w3.org/1999/xlink">
<g id="graph0" class="graph" transform="scale(1 1) rotate(0) translate(4 400)">
<title>snakemake_dag</title>
<polygon fill="white" stroke="none" points="-4,4 -4,-400 658,-400 658,4 -4,4"/>
<!-- 0 -->
<g id="node1" class="node">
<title>0</title>
<path fill="none" stroke="#56d8c9" stroke-width="2" d="M305,-36C305,-36 275,-36 275,-36 269,-36 263,-30 263,-24 263,-24 263,-12 263,-12 263,-6 269,0 275,0 275,0 305,0 305,0 311,0 317,-6 317,-12 317,-12 317,-24 317,-24 317,-30 311,-36 305,-36"/>
<text text-anchor="middle" x="290" y="-15.5" font-family="sans" font-size="10.00">all</text>
</g>
<!-- 1 -->
<g id="node2" class="node">
<title>1</title>
<path fill="none" stroke="#d85656" stroke-width="2" d="M80,-108C80,-108 12,-108 12,-108 6,-108 0,-102 0,-96 0,-96 0,-84 0,-84 0,-78 6,-72 12,-72 12,-72 80,-72 80,-72 86,-72 92,-78 92,-84 92,-84 92,-96 92,-96 92,-102 86,-108 80,-108"/>
<text text-anchor="middle" x="46" y="-87.5" font-family="sans" font-size="10.00">current_rulegraph</text>
</g>
<!-- 1&#45;&gt;0 -->
<g id="edge1" class="edge">
<title>1&#45;&gt;0</title>
<path fill="none" stroke="grey" stroke-width="2" d="M92.78,-74.45C95.56,-73.61 98.32,-72.79 101,-72 152.14,-56.93 211.35,-40.49 249.68,-29.98"/>
<polygon fill="grey" stroke="grey" stroke-width="2" points="250.43,-33.4 259.15,-27.38 248.58,-26.65 250.43,-33.4"/>
</g>
<!-- 2 -->
<g id="node3" class="node">
<title>2</title>
<path fill="none" stroke="#56b1d8" stroke-width="2" d="M208,-108C208,-108 122,-108 122,-108 116,-108 110,-102 110,-96 110,-96 110,-84 110,-84 110,-78 116,-72 122,-72 122,-72 208,-72 208,-72 214,-72 220,-78 220,-84 220,-84 220,-96 220,-96 220,-102 214,-108 208,-108"/>
<text text-anchor="middle" x="165" y="-87.5" font-family="sans" font-size="10.00">plot_mobility_national</text>
</g>
<!-- 2&#45;&gt;0 -->
<g id="edge5" class="edge">
<title>2&#45;&gt;0</title>
<path fill="none" stroke="grey" stroke-width="2" d="M196.87,-71.15C213.36,-61.92 233.64,-50.56 251.06,-40.81"/>
<polygon fill="grey" stroke="grey" stroke-width="2" points="252.37,-44.09 259.38,-36.15 248.95,-37.98 252.37,-44.09"/>
</g>
<!-- 3 -->
<g id="node4" class="node">
<title>3</title>
<path fill="none" stroke="#9fd856" stroke-width="2" d="M207.5,-180C207.5,-180 118.5,-180 118.5,-180 112.5,-180 106.5,-174 106.5,-168 106.5,-168 106.5,-156 106.5,-156 106.5,-150 112.5,-144 118.5,-144 118.5,-144 207.5,-144 207.5,-144 213.5,-144 219.5,-150 219.5,-156 219.5,-156 219.5,-168 219.5,-168 219.5,-174 213.5,-180 207.5,-180"/>
<text text-anchor="middle" x="163" y="-159.5" font-family="sans" font-size="10.00">clean_google_national</text>
</g>
<!-- 3&#45;&gt;2 -->
<g id="edge7" class="edge">
<title>3&#45;&gt;2</title>
<path fill="none" stroke="grey" stroke-width="2" d="M163.5,-143.34C163.69,-136.75 163.91,-129.08 164.12,-121.67"/>
<polygon fill="grey" stroke="grey" stroke-width="2" points="167.61,-122.02 164.4,-111.93 160.62,-121.82 167.61,-122.02"/>
</g>
<!-- 4 -->
<g id="node5" class="node">
<title>4</title>
<path fill="none" stroke="#70d856" stroke-width="2" d="M318.5,-252C318.5,-252 253.5,-252 253.5,-252 247.5,-252 241.5,-246 241.5,-240 241.5,-240 241.5,-228 241.5,-228 241.5,-222 247.5,-216 253.5,-216 253.5,-216 318.5,-216 318.5,-216 324.5,-216 330.5,-222 330.5,-228 330.5,-228 330.5,-240 330.5,-240 330.5,-246 324.5,-252 318.5,-252"/>
<text text-anchor="middle" x="286" y="-231.5" font-family="sans" font-size="10.00">plot_mobility_lad</text>
</g>
<!-- 4&#45;&gt;0 -->
<g id="edge4" class="edge">
<title>4&#45;&gt;0</title>
<path fill="none" stroke="grey" stroke-width="2" d="M277.91,-215.27C273.74,-205.16 269.11,-192.13 267,-180 259.09,-134.52 270.66,-81.47 280.06,-49.07"/>
<polygon fill="grey" stroke="grey" stroke-width="2" points="283.31,-50.41 282.88,-39.82 276.62,-48.36 283.31,-50.41"/>
</g>
<!-- 5 -->
<g id="node6" class="node">
<title>5</title>
<path fill="none" stroke="#56d89a" stroke-width="2" d="M469,-396C469,-396 401,-396 401,-396 395,-396 389,-390 389,-384 389,-384 389,-372 389,-372 389,-366 395,-360 401,-360 401,-360 469,-360 469,-360 475,-360 481,-366 481,-372 481,-372 481,-384 481,-384 481,-390 475,-396 469,-396"/>
<text text-anchor="middle" x="435" y="-375.5" font-family="sans" font-size="10.00">clean_google_lad</text>
</g>
<!-- 5&#45;&gt;4 -->
<g id="edge8" class="edge">
<title>5&#45;&gt;4</title>
<path fill="none" stroke="grey" stroke-width="2" d="M412.24,-359.22C399.76,-349.22 384.19,-336.29 371,-324 349.86,-304.31 327.34,-280.59 310.79,-262.59"/>
<polygon fill="grey" stroke="grey" stroke-width="2" points="313.4,-260.25 304.07,-255.22 308.23,-264.97 313.4,-260.25"/>
</g>
<!-- 7 -->
<g id="node8" class="node">
<title>7</title>
<path fill="none" stroke="#56d86b" stroke-width="2" d="M478,-324C478,-324 392,-324 392,-324 386,-324 380,-318 380,-312 380,-312 380,-300 380,-300 380,-294 386,-288 392,-288 392,-288 478,-288 478,-288 484,-288 490,-294 490,-300 490,-300 490,-312 490,-312 490,-318 484,-324 478,-324"/>
<text text-anchor="middle" x="435" y="-303.5" font-family="sans" font-size="10.00">prep_regression_data</text>
</g>
<!-- 5&#45;&gt;7 -->
<g id="edge10" class="edge">
<title>5&#45;&gt;7</title>
<path fill="none" stroke="grey" stroke-width="2" d="M435,-359.34C435,-352.75 435,-345.08 435,-337.67"/>
<polygon fill="grey" stroke="grey" stroke-width="2" points="438.5,-337.93 435,-327.93 431.5,-337.93 438.5,-337.93"/>
</g>
<!-- 9 -->
<g id="node10" class="node">
<title>9</title>
<path fill="none" stroke="#d88556" stroke-width="2" d="M642,-180C642,-180 496,-180 496,-180 490,-180 484,-174 484,-168 484,-168 484,-156 484,-156 484,-150 490,-144 496,-144 496,-144 642,-144 642,-144 648,-144 654,-150 654,-156 654,-156 654,-168 654,-168 654,-174 648,-180 642,-180"/>
<text text-anchor="middle" x="569" y="-159.5" font-family="sans" font-size="10.00">prep_regression_forward_projection</text>
</g>
<!-- 5&#45;&gt;9 -->
<g id="edge13" class="edge">
<title>5&#45;&gt;9</title>
<path fill="none" stroke="grey" stroke-width="2" d="M462.14,-359.03C474.62,-349.72 488.86,-337.49 499,-324 529.56,-283.35 550.02,-227.3 560.56,-193.19"/>
<polygon fill="grey" stroke="grey" stroke-width="2" points="563.87,-194.33 563.37,-183.75 557.16,-192.34 563.87,-194.33"/>
</g>
<!-- 6 -->
<g id="node7" class="node">
<title>6</title>
<path fill="none" stroke="#5682d8" stroke-width="2" d="M454,-252C454,-252 416,-252 416,-252 410,-252 404,-246 404,-240 404,-240 404,-228 404,-228 404,-222 410,-216 416,-216 416,-216 454,-216 454,-216 460,-216 466,-222 466,-228 466,-228 466,-240 466,-240 466,-246 460,-252 454,-252"/>
<text text-anchor="middle" x="435" y="-231.5" font-family="sans" font-size="10.00">regression</text>
</g>
<!-- 6&#45;&gt;0 -->
<g id="edge6" class="edge">
<title>6&#45;&gt;0</title>
<path fill="none" stroke="grey" stroke-width="2" d="M429.72,-215.12C423.79,-196.54 413.13,-167.01 399,-144 376.22,-106.91 342.34,-70.04 318.4,-46.06"/>
<polygon fill="grey" stroke="grey" stroke-width="2" points="320.87,-43.57 311.29,-39.04 315.95,-48.55 320.87,-43.57"/>
</g>
<!-- 8 -->
<g id="node9" class="node">
<title>8</title>
<path fill="none" stroke="#ced856" stroke-width="2" d="M580,-108C580,-108 458,-108 458,-108 452,-108 446,-102 446,-96 446,-96 446,-84 446,-84 446,-78 452,-72 458,-72 458,-72 580,-72 580,-72 586,-72 592,-78 592,-84 592,-84 592,-96 592,-96 592,-102 586,-108 580,-108"/>
<text text-anchor="middle" x="519" y="-87.5" font-family="sans" font-size="10.00">regression_forward_projection</text>
</g>
<!-- 6&#45;&gt;8 -->
<g id="edge12" class="edge">
<title>6&#45;&gt;8</title>
<path fill="none" stroke="grey" stroke-width="2" d="M441.34,-215.23C448.32,-196.74 460.48,-167.29 475,-144 480.46,-135.25 487.23,-126.38 493.81,-118.47"/>
<polygon fill="grey" stroke="grey" stroke-width="2" points="496.37,-120.86 500.25,-111 491.07,-116.29 496.37,-120.86"/>
</g>
<!-- 6&#45;&gt;9 -->
<g id="edge14" class="edge">
<title>6&#45;&gt;9</title>
<path fill="none" stroke="grey" stroke-width="2" d="M466.76,-216.41C483.6,-207.61 504.59,-196.65 523.16,-186.94"/>
<polygon fill="grey" stroke="grey" stroke-width="2" points="524.73,-190.08 531.97,-182.34 521.49,-183.87 524.73,-190.08"/>
</g>
<!-- 10 -->
<g id="node11" class="node">
<title>10</title>
<path fill="none" stroke="#d8b456" stroke-width="2" d="M378,-180C378,-180 288,-180 288,-180 282,-180 276,-174 276,-168 276,-168 276,-156 276,-156 276,-150 282,-144 288,-144 288,-144 378,-144 378,-144 384,-144 390,-150 390,-156 390,-156 390,-168 390,-168 390,-174 384,-180 378,-180"/>
<text text-anchor="middle" x="333" y="-159.5" font-family="sans" font-size="10.00">summarise_sensitivity</text>
</g>
<!-- 6&#45;&gt;10 -->
<g id="edge15" class="edge">
<title>6&#45;&gt;10</title>
<path fill="none" stroke="grey" stroke-width="2" d="M409,-215.15C397.01,-206.93 382.57,-197.02 369.51,-188.06"/>
<polygon fill="grey" stroke="grey" stroke-width="2" points="371.68,-185.3 361.45,-182.53 367.72,-191.07 371.68,-185.3"/>
</g>
<!-- 7&#45;&gt;6 -->
<g id="edge9" class="edge">
<title>7&#45;&gt;6</title>
<path fill="none" stroke="grey" stroke-width="2" d="M435,-287.34C435,-280.75 435,-273.08 435,-265.67"/>
<polygon fill="grey" stroke="grey" stroke-width="2" points="438.5,-265.93 435,-255.93 431.5,-265.93 438.5,-265.93"/>
</g>
<!-- 8&#45;&gt;0 -->
<g id="edge3" class="edge">
<title>8&#45;&gt;0</title>
<path fill="none" stroke="grey" stroke-width="2" d="M460.32,-71.06C419.61,-58.62 366.42,-42.36 330.39,-31.35"/>
<polygon fill="grey" stroke="grey" stroke-width="2" points="331.43,-28 320.84,-28.43 329.38,-34.7 331.43,-28"/>
</g>
<!-- 9&#45;&gt;8 -->
<g id="edge11" class="edge">
<title>9&#45;&gt;8</title>
<path fill="none" stroke="grey" stroke-width="2" d="M556.38,-143.34C551.21,-136.1 545.09,-127.53 539.32,-119.45"/>
<polygon fill="grey" stroke="grey" stroke-width="2" points="542.21,-117.47 533.55,-111.37 536.51,-121.54 542.21,-117.47"/>
</g>
<!-- 10&#45;&gt;0 -->
<g id="edge2" class="edge">
<title>10&#45;&gt;0</title>
<path fill="none" stroke="grey" stroke-width="2" d="M327.55,-143.02C320.41,-119.44 307.78,-77.73 299.16,-49.25"/>
<polygon fill="grey" stroke="grey" stroke-width="2" points="302.53,-48.29 296.28,-39.74 295.83,-50.32 302.53,-48.29"/>
</g>
</g>
</svg>
